<svg xmlns="http://www.w3.org/2000/svg" viewBox="0 0 892.19 940.51"><defs><style>.cls-1{fill:#fff;}.cls-2{fill:#eff4ed;}.cls-3,.cls-4,.cls-5{fill:#11191b;}.cls-14,.cls-3,.cls-4{stroke:#000;stroke-miterlimit:10;}.cls-4{stroke-width:10px;}.cls-6{fill:#fafbf8;}.cls-7{fill:#3b3f43;}.cls-8{fill:#2ee900;}.cls-9{fill:#3d4143;}.cls-10{fill:#11191c;}.cls-11{fill:#4c8fc1;}.cls-12{fill:#fdffff;}.cls-13{fill:#11171a;}.cls-14{fill:none;stroke-width:8px;}</style></defs><title>bluefire_dragonID</title><g id="Layer_21" data-name="Layer 21"><polygon class="cls-1" points="152.19 536.81 170.83 504.46 206.12 475.09 183.12 410.56 158.46 449.2 144.86 494.97 152.19 536.81"/><polygon class="cls-2" points="120.45 421.77 148.83 395.81 190.54 378.32 197.56 309.01 156.77 334.86 129.86 377.83 120.45 421.77"/><polygon class="cls-1" points="120.85 421.91 148.35 396.65 185.53 379.24 190.39 309.01 153.15 340.22 126.43 379.79 120.85 421.91"/><polygon class="cls-1" points="125.51 300.52 159.71 285.54 205.54 282.84 225.31 217.25 182.54 233.72 144.43 262.49 125.51 300.52"/></g><g id="Layer_16" data-name="Layer 16"><path class="cls-3" d="M175.76,333.08a3,3,0,0,0,4.38,3.42c34.94-22.62,67.81-27.45,77.13-23.16,12.71-22,19.07-51.32,31.79-73.29C274.29,245.09,199.62,257.64,175.76,333.08Zm81.37-29.32a1.86,1.86,0,0,1-2.15.89c-10.11-3.06-39.37-1.93-64.15,16.3a1.88,1.88,0,0,1-2.77-2.41c25.42-49.51,71.88-64.38,89.3-69.77a1.88,1.88,0,0,1,2.2,2.7C270.93,268.11,266.22,287.44,257.13,303.76Z" transform="translate(-58.4 -26.12)"/><path class="cls-3" d="M176.31,456.59a2.94,2.94,0,0,0,5.29,1.67c24.85-33.4,54-49.4,64.19-48.63,4.24-25,2.32-54.75,6.56-79.78C240.28,339.73,172.32,377.57,176.31,456.59Zm66-55.89a1.87,1.87,0,0,1-1.71,1.58C230.07,403,203,414.22,186.2,440a1.88,1.88,0,0,1-3.44-1.29c6.52-55.28,50.07-89.58,64.51-100.72a1.89,1.89,0,0,1,3,1.76C248,358.32,245.13,382.23,242.32,400.7Z" transform="translate(-58.4 -26.12)"/><path class="cls-3" d="M209.07,574.91a2.94,2.94,0,0,0,5.55,0c13.43-39.4,36.25-63.54,46.22-65.94-3.62-25.13-15.67-54.15-19.29-79.28C233.08,442.77,181.08,500.91,209.07,574.91Zm42.09-71.65a1.86,1.86,0,0,1-1.14,2c-9.83,3.87-28.47,21.11-36.63,50.77a1.88,1.88,0,0,1-3.67-.17c-10.7-54.62,16.57-95.06,26.91-110.09a1.89,1.89,0,0,1,3.4.76C243.55,465,248.19,484.81,251.16,503.26Z" transform="translate(-58.4 -26.12)"/></g><g id="Layer_1" data-name="Layer 1"><path class="cls-4" d="M678.17,708c4.87-11.23,10.11-23.06,15-35,.47-1.15-.55-3.37-1.52-4.6-16.59-21.12-28.23-44.47-33.07-71.1-4.91-27,9.88-46,29.12-57.21A61.69,61.69,0,0,1,701,534.52c3.13-.94,4.24-2.69,4.67-5.57q9.09-60.63,18.24-121.24,5.31-35,10.93-69.92c1.34-8.33,6.23-12.45,14.54-11.66,15.06,1.44,30.07,3.43,45.09,5.29,22.61,2.8,45.2,5.7,67.8,8.54q30,3.77,59.91,7.5c3.8.48,7.58,1,11.37,1.54,7.14,1,13.18,8.73,11.81,16.63-6.64,38.5-12.4,77.15-18.56,115.73s-12.42,77.13-18.61,115.69c-1.72,10.68-3.18,21.39-5.08,32-3.16,17.61-17.79,28.58-35.59,26.36-4.63-.58-6.79.73-9,4.59-9.73,16.81-24,29.15-39.92,39.9a9.42,9.42,0,0,0-3.66,5.68c-5.34,35-10.56,70-23.21,103.37-8.9,23.43-21.28,44.8-40.18,61.73C742,879.29,731.43,887,717.7,884.55a218.26,218.26,0,0,1-34.52-9.29c-14.85-5.28-29.24-11.81-43.85-17.77-1.81-.74-3.7-1.27-5.63-1.93-4.37,10.82-8.56,21.27-12.82,31.7-1.13,2.76-2.8,5.34-3.66,8.17-3.22,10.54-11.11,15.3-21,18.59a327.37,327.37,0,0,1-104.9,16.87c-8.32,0-16.64-.59-25-1.13-2.69-.18-3.83.71-4.61,3.23a47.08,47.08,0,0,1-4.14,10.08c-3.65,6.12-8.81,6-13.86.93-5.66-5.69-11.93-10.77-18.88-17-1.62,6.91-2.63,12.05-4.06,17.06a55.2,55.2,0,0,1-4,10.18c-4.38,8.48-10.38,9.61-17.7,3.48C387.91,948.33,376,940,362.65,933.61c-11.79-5.6-23.79-8.76-37-7.92S299,927.47,286,923.08c-10.92-3.68-20.6-9.07-28.27-17.94-1.5-1.74-4.56-2.64-7-3C203.09,896,160.17,878.7,123.38,847.5c-12.52-10.62-22.92-23.18-29.79-38.37a7.35,7.35,0,0,0-4.28-3.34c-8-2.33-10.75-6.93-8.88-15.38,4.36-19.64,14-36.86,24.84-53.47,18.47-28.32,41.51-52.39,68.36-72.88,1.55-1.18,3.2-3.16,3.47-5,2.7-18.31,13.24-32,27-42.89a162.05,162.05,0,0,1,32.37-20.35c15.09-7,21.65-18.7,24.43-33.91,2.91-16-2-31-5.33-46.21C243.1,460.9,237.75,416,241.78,383.57c16.06-128.94,51.33-139.39,44.79-143.52-27.6-17.41-59.44-40-77.1-68C195,149.28,383.4,179.37,385,179.51a14.89,14.89,0,0,0,7.46-1.18c.65-.31.45-4.27-.54-5.78-4.8-7.3-9.87-14.44-15.13-21.43a125.55,125.55,0,0,1-7.27-11.49c-1.41-2.63-3.95-5.25-3-7.82.75-1.94,7.18-2,9.75-2,19.06-.22,36.61,6.51,53.05,15.51,12.76,7,24.36,16.07,36.49,24.21.78.53,1.62,1,3,1.79-2.56-17-3.48-100.75-3.5-111.68-.57-1,42.57,47.14,58.36,74.91,14.41,21.49,26.93,52.21,29.23,78.16a7,7,0,0,0,3.32,4.67,185.46,185.46,0,0,0,17,8.23c26.07,10.85,26.37,36.41,17.36,54.75-1.16,2.37-2.67,4.56-4.43,7.52,8.51,3,16.7,6,24.93,8.84,3.29,1.14,6.69,2,10,3,4.56,1.46,8.64,2,13.72.19,8-2.89,14.79,2,20.56,7.23,8.63,7.81,12.91,18.18,14.88,29.29,6.39,36,.24,69.85-19.81,100.68-3.28,5.06-8,9.33-12.71,13.27-6,5.05-9.68,4.86-16.27.7-1.65-1.05-3.39-2-4.05-2.35-8.81,8.75-16.62,17.66-25.64,25.13-11.14,9.24-24,15.41-38.94,16.17-4.41.22-7.44-1.88-10.9-4.72a176.92,176.92,0,0,0-24.46-17c-15.58-8.86-32.62-14-50.23-17.14a16.47,16.47,0,0,0-3-.21,17.16,17.16,0,0,0-2.18.3c-1.91,16.13,2.37,30.63,10.6,44.22,10.28,17,25.17,29.57,39.89,42.36,18.48,16,36.79,32.28,55.38,48.19,5.53,4.73,11.71,8.73,17.67,12.94,18.73,13.25,36.22,27.75,48.89,47.28A51.75,51.75,0,0,1,643,670.54a8.82,8.82,0,0,0,2.24,5.2C656,686.51,667,697.11,678.17,708ZM207.25,123.06l-1.1.47c3.63,8.08,6.86,16.36,11,24.19,17.22,32.95,43.92,56,76.82,72.32,17,8.44,34.06,16.66,48.68,29.08,1,.89,3.48,1,4.9.48,17.45-6.44,27.83-18.81,30.22-37.38,1.11-8.64-.83-16.23-9.16-21-4.62-2.62-8.95-5.78-13.65-8.23-20.46-10.66-42.81-14.94-65.21-19.11-23.75-4.42-46.32-12-65.83-26.85C218.11,132.69,212.78,127.74,207.25,123.06ZM820.64,432c-33.78-.09-62.33,29.34-62.61,64.55-.26,34,27.17,62.21,60.69,62.33,33.21.12,62.07-29,62.13-62.65C880.92,461.33,853.51,432.09,820.64,432ZM719.05,549c-14.77.63-26.49,6.86-34.64,19.31A21.62,21.62,0,0,0,681.78,587c1.63,5.53,9.43,11.33,14.73,10.64,21.73-2.82,38.18-14.46,51.25-31.35,3.61-4.67,3-6.16-2.15-9.51C737.55,551.56,728.41,550,719.05,549ZM458.3,316.94c11.18,2.4,22.7.44,33.59-6.09,3.06-1.83,3.57-4.17,2.37-7.09-2.14-5.21-3.86-10.72-6.81-15.45-10-16-23.56-26.49-43.46-26.1-1.56,0-4,.82-4.5,1.94-2,4.69-3.45,9.64-5.09,14.49,6.62-5.19,13.06-9.22,21-5.67,7.65,3.42,8.17,11.16,7.57,18.06C462.22,299.62,460,308.07,458.3,316.94ZM880.11,644c.09-1,.19-2.07.28-3.1L730.12,615.81c.3,7.55.8,8.05,7.57,9,40.77,6,81.53,12.07,122.32,17.91C866.63,643.71,873.4,643.58,880.11,644ZM404.8,937.09a59.25,59.25,0,0,0-4.3-28.16A65.55,65.55,0,0,0,392,895.1c-.87-1.15-4.48-1.66-5.77-.82-6.9,4.45-10.71,11.2-12.13,19.18-.26,1.46.44,3.92,1.54,4.66C385.16,924.56,394.9,930.72,404.8,937.09Zm40.64-104.94c-1.77,6.16-3.44,11.53-4.79,17a6.29,6.29,0,0,0,.9,4q5.51,10.51,11.26,20.91a8,8,0,0,0,2.37,2.87c5.44,3.6,11,7,16.93,10.86C471.59,865.44,461.43,847.84,445.44,832.15Zm-16,37.52c-4.33,6.46-8.74,12.69-9.76,20.41-1.37,10.5.27,13.15,9.34,17.88a101.16,101.16,0,0,1,9,5.23c2.8,1.84,5.39,4,8.79,6.56C447.24,900.47,439.26,885.18,429.44,869.67ZM784.33,596.12m1.94-13.75" transform="translate(-58.4 -26.12)"/><path class="cls-1" d="M207.4,123.06c5.53,4.68,10.86,9.63,16.63,14,19.51,14.83,42.07,22.43,65.83,26.85,22.4,4.17,44.75,8.45,65.21,19.11,4.7,2.45,9,5.61,13.64,8.23,8.34,4.73,10.28,12.32,9.16,21-2.39,18.57-12.76,30.94-30.21,37.38-1.42.52-3.86.41-4.91-.48-14.61-12.42-31.7-20.64-48.67-29.08-32.91-16.35-59.6-39.37-76.82-72.32-4.1-7.83-7.33-16.11-11-24.19Z" transform="translate(-58.4 -26.12)"/><path class="cls-1" d="M820.78,432c32.88.09,60.29,29.33,60.22,64.23-.07,33.67-28.93,62.77-62.13,62.65-33.52-.12-61-28.3-60.69-62.33C758.46,461.34,787,431.91,820.78,432Zm-47.15,91,14.72-4.25V495l-21.13-3.25C766.51,503.29,768.49,513.44,773.63,523Zm82.13,11.5a54.84,54.84,0,0,0,15-27.32l-19.88-2.93-8.18,22.48Zm-67.07-46.17,6.75-22.05-13.21-8.25a54.33,54.33,0,0,0-13.79,27.42Zm63.16,9.42,20,3.08c.81-10.7-.68-20.3-5.38-29.24l-14.64,4.08Zm-15,26.25c2.47-6.79,4.92-13.53,7.64-21l-22.38-3.35C821,506.43,820,512.52,819,518.57ZM823,493.41l22.41,3.3V476.29l-19.22-1C825.15,481.1,824.13,486.91,823,493.41Zm-10.35,24.3c1.06-6.29,2.07-12.26,3.16-18.72l-21.9-3.33c.36,7.77.69,14.78,1,22.05ZM820,474.66l-18.72-5.57c-1.75,5.71-3.63,11.31-5,17-.26,1,1.22,3.5,2.2,3.69,6,1.14,12,1.81,18.29,2.67C817.86,486.27,818.93,480.46,820,474.66Zm-15.61-11.3,16.4,4.76c1.68-9.52,3.26-18.51,5.1-29C814.9,444.68,810.23,453.88,804.39,463.36Zm40,6.34c-2.59-10.55-5-20-12.51-28.51-1.68,9.92-3.14,18.62-4.67,27.68ZM818,525.09c-1.49,8.37-2.87,16.11-4.53,25.38,10.08-5.07,15.14-12.59,20-21Zm-21.22-.6c2.12,8.89,4.25,17.07,10.82,24.93,1.45-9.23,2.67-17,3.91-24.93Zm54.33-55.28,13.7-3.91-20.27-19.64-.77.91C846.12,453.88,848.49,461.18,851.09,469.21Zm-39-27.81-.65-1.18-25.14,12.51L798,460.41ZM795.74,545.7l1-1.26c-2.16-6.3-4.32-12.6-6.58-19.21l-12.33,3.26c-.22.57-.45,1.14-.68,1.71Zm43.9-13.39-12.33,16.35.62,1.28,23.41-10.39Z" transform="translate(-58.4 -26.12)"/><path class="cls-1" d="M719.19,549c9.37.94,18.51,2.54,26.56,7.74,5.17,3.35,5.76,4.84,2.16,9.51-13.07,16.89-29.53,28.53-51.25,31.35-5.31.69-13.11-5.11-14.73-10.64a21.62,21.62,0,0,1,2.62-18.65C692.71,555.88,704.42,549.65,719.19,549Z" transform="translate(-58.4 -26.12)"/><path class="cls-1" d="M458.45,316.94c1.67-8.87,3.92-17.32,4.67-25.91.61-6.9.09-14.64-7.56-18.06-7.95-3.55-14.39.48-21,5.67,1.64-4.85,3.07-9.8,5.08-14.49.48-1.12,2.94-1.91,4.51-1.94,19.89-.39,33.48,10.11,43.46,26.1,2.95,4.73,4.67,10.24,6.81,15.45,1.2,2.92.69,5.26-2.37,7.09C481.15,317.38,469.62,319.34,458.45,316.94Z" transform="translate(-58.4 -26.12)"/><path class="cls-1" d="M880.26,644c-6.71-.38-13.48-.25-20.11-1.2-40.79-5.84-81.54-11.92-122.31-17.91-6.77-1-7.27-1.49-7.57-9l150.27,25.05C880.44,641.89,880.35,642.92,880.26,644Z" transform="translate(-58.4 -26.12)"/><path class="cls-1" d="M405.09,934.83a1.32,1.32,0,0,1-2,1c-9.24-5.94-18.36-11.73-27.31-17.76-1.1-.74-1.8-3.2-1.54-4.66,1.41-8,5.23-14.73,12.12-19.18,1.3-.84,4.9-.33,5.78.82a66,66,0,0,1,8.54,13.83A58.86,58.86,0,0,1,405.09,934.83Z" transform="translate(-58.4 -26.12)"/><path class="cls-1" d="M445.59,832.15c16,15.69,26.15,33.29,26.66,55.58-6-3.81-11.49-7.26-16.92-10.86A8.06,8.06,0,0,1,453,874c-3.81-6.94-7.58-13.9-11.25-20.91a6.36,6.36,0,0,1-.91-4C442.14,843.68,443.81,838.31,445.59,832.15Z" transform="translate(-58.4 -26.12)"/><path class="cls-1" d="M429.58,869.67c9.83,15.51,17.81,30.8,17.4,50.08-3.4-2.56-6-4.72-8.79-6.56a99.93,99.93,0,0,0-9-5.23c-9.06-4.73-10.7-7.38-9.33-17.88C420.84,882.36,425.25,876.13,429.58,869.67Z" transform="translate(-58.4 -26.12)"/><path d="M773.63,523c-5.14-9.59-7.12-19.74-6.41-31.3L788.35,495v23.8Z" transform="translate(-58.4 -26.12)"/><path d="M855.76,534.53l-13-7.77,8.18-22.48,19.88,2.93A54.84,54.84,0,0,1,855.76,534.53Z" transform="translate(-58.4 -26.12)"/><path d="M788.69,488.36l-20.25-2.88a54.33,54.33,0,0,1,13.79-27.42l13.21,8.25Z" transform="translate(-58.4 -26.12)"/><path d="M851.85,497.78V475.7l14.64-4.08c4.7,8.94,6.19,18.54,5.38,29.24Z" transform="translate(-58.4 -26.12)"/><path d="M836.89,524,819,518.57c1-6.05,2-12.14,3.19-18.88L844.53,503C841.81,510.5,839.36,517.24,836.89,524Z" transform="translate(-58.4 -26.12)"/><path d="M823,493.41c1.14-6.5,2.16-12.31,3.19-18.12l19.22,1v20.42Z" transform="translate(-58.4 -26.12)"/><path d="M812.64,517.71H794.93c-.34-7.27-.67-14.28-1-22.05L815.8,499C814.71,505.45,813.7,511.42,812.64,517.71Z" transform="translate(-58.4 -26.12)"/><path d="M820,474.66c-1.07,5.8-2.14,11.61-3.28,17.82-6.29-.86-12.33-1.53-18.29-2.67-.73-.14-3-.52-3-.52a171.5,171.5,0,0,1,5.84-20.2Z" transform="translate(-58.4 -26.12)"/><path d="M804.39,463.36c5.84-9.48,10.51-18.68,21.5-24.22-1.84,10.47-3.42,19.46-5.1,29Z" transform="translate(-58.4 -26.12)"/><path d="M844.39,469.7l-17.18-.83c1.53-9.06,2.69-18.73,4.36-28.65C839.12,448.77,841.8,459.15,844.39,469.7Z" transform="translate(-58.4 -26.12)"/><path d="M818,525.09l15.51,4.36c-4.9,8.43-10,15.95-20,21C815.11,541.2,816.49,533.46,818,525.09Z" transform="translate(-58.4 -26.12)"/><path d="M796.76,524.49h14.73c-1.24,7.88-2.46,15.7-3.91,24.93C801,541.56,798.88,533.38,796.76,524.49Z" transform="translate(-58.4 -26.12)"/><path d="M851.09,469.21c-2.89-8.91-5.49-16.93-8.13-25a57,57,0,0,1,13.19,9.14c3.44,3.32,6.22,7.7,8.64,12Z" transform="translate(-58.4 -26.12)"/><path d="M813.22,439.87,798,460.41l-11.68-7.68a64.72,64.72,0,0,1,12-8.1A54.42,54.42,0,0,1,813.22,439.87Z" transform="translate(-58.4 -26.12)"/><path d="M797.69,547.33a98.3,98.3,0,0,1-12.91-9,64.76,64.76,0,0,1-9-9.27l14.4-3.81C792.73,532.85,795.2,540.06,797.69,547.33Z" transform="translate(-58.4 -26.12)"/><path d="M839.64,532.31l11.7,7.24a93.83,93.83,0,0,1-11,6.15,81.67,81.67,0,0,1-14.76,5.3Z" transform="translate(-58.4 -26.12)"/><path class="cls-1" d="M476.22,172.84c-1.29-12.91-4.09-95-4.09-95s31.81,34,51.58,72.6c8.65,16.9,19.12,40.48,20.34,56.87C530.21,200.38,490.06,179.78,476.22,172.84Z" transform="translate(-58.4 -26.12)"/><g id="Layer_14" data-name="Layer 14"><path class="cls-5" d="M299.28,250.51A528.79,528.79,0,0,1,197,187.22C139.74,142.06,92.53,72.26,69.26,36c0,0,132.62,67.89,194.67,95.28,51.38,22.68,121.26,48.2,121.26,48.2l7.14,31.67L362.22,256Z" transform="translate(-58.4 -26.12)"/></g></g><g id="Layer_19" data-name="Layer 19"><path class="cls-6" d="M792.85,398.93l2.73-5.83s3.08,3.32,6.16,3.09,4.55-3.39.7-5.09-8.09-3.85-6.32-10.17,7.24-5.7,9.63-5.63,7,2.93,7,2.93l-2.54,5.86s-2.24-3.24-5.78-3.16-2.77,2.62-1.77,3.47,7.09,1.38,8.7,6.32-1.46,10.17-4.85,10.94a18,18,0,0,1-9.32-.39" transform="translate(-58.4 -26.12)"/><path class="cls-6" d="M812.76,400.89l2.31-4.93s3.09,3.32,6.17,3.08,4.54-3.39.69-5.08-8.09-3.85-6.32-10.17,7.25-5.71,9.64-5.63,7,2.93,7,2.93L829.71,387s-2.23-3.24-5.77-3.16-2.78,2.62-1.78,3.46,7.09,1.39,8.71,6.32-1.46,10.17-4.85,10.95a17.52,17.52,0,0,1-9.33-.39A11.82,11.82,0,0,1,812.76,400.89Z" transform="translate(-58.4 -26.12)"/><path class="cls-6" d="M917.91,390,899,387.82l-.54,6.66c1.9,0,3.74.33,5.63.3L901,415.27l6.66.44q1.86-9.94,3.73-19.9l5.6.54C917.31,394.22,917.61,392.08,917.91,390Z" transform="translate(-58.4 -26.12)"/></g><g id="Layer_20" data-name="Layer 20"><path class="cls-6" d="M758.8,368.85l-4.86,25.3,5.63,1.11,1.33-7.85s10.72,3.1,12.82-9.28C775.46,367.85,758.8,368.85,758.8,368.85Zm4.11,13.28v-6.78s4.69-.66,4.74,3C767.68,381.1,766.9,382,762.91,382.13Z" transform="translate(-58.4 -26.12)"/><path class="cls-6" d="M791,399.81l-2.31-26.35-6.62-.7-11.84,23.75,6.13,1,1.54-5.24,7.48,1.31-.15,5.78Zm-10.59-12.22,3.64-7.28.7,7.56Z" transform="translate(-58.4 -26.12)"/><path class="cls-6" d="M836.52,379.69l-3.35,26.05,6.23.42.82-7.88S852.89,401.55,853,389C853.15,379.11,836.52,379.69,836.52,379.69Zm4.73,13.2.55-6.75s4.73-.28,4.47,3.37C846.08,392.26,845.23,393.1,841.25,392.89Z" transform="translate(-58.4 -26.12)"/><path class="cls-6" d="M864,383.23s-8.19-.38-9.61,12.09,4.57,13.9,8.56,14.76c3.17.68,11.14.29,12.38-14S864,383.23,864,383.23ZM859.73,396c1.25-8.6,10-9.3,10.1-.71C869.91,408,858.16,406.86,859.73,396Z" transform="translate(-58.4 -26.12)"/><path class="cls-6" d="M897.08,396.73c1.14-4.36,1-10.93-15.71-10.73l-4.66,25,6.09,1.24L884,402.1h1.9l3.24,11.41h6L891.46,403S895.94,401.09,897.08,396.73Zm-11.77,2.09.55-6.75s4.74-.28,4.48,3.37C890.14,398.19,889.3,399,885.31,398.82Z" transform="translate(-58.4 -26.12)"/></g><g id="Layer_17" data-name="Layer 17"><path class="cls-1" d="M377.16,136.81s37.87,4.37,67.24,27.11,58.11,54,58.11,54-37.27-18.64-61-25.58-26.7-5.86-26.7-5.86Z" transform="translate(-58.4 -26.12)"/></g><g id="Layer_2" data-name="Layer 2"><path class="cls-1" d="M411.69,684.92s38,22.68,65.67,31.65,75.69,20,75.69,20,19.52-12.66,27.7-24.53S601.32,671,601.32,671s7.91,20.57,11.34,40.08,6.59,39,4.22,47-3.43,20.57-24.79,38.77-28,21.1-28,21.1-53.8-10-82.81-23.48-74.9-34.81-74.9-34.81-1.32-25.85,0-39S411.69,684.92,411.69,684.92Z" transform="translate(-58.4 -26.12)"/><path class="cls-1" d="M616.35,797.54s-7.12,35.87-17.14,57.49-16.88,37.19-16.88,37.19-13.71,12.66-51.69,10-41.15-7.53-41.15-7.53,5.28-25.7-12.92-54.45-46.76-42.72-46.76-42.72l-21-7.39-1.32-12.66s57.76,28.75,93.63,40.36,64.35,17.67,64.35,17.67a97.85,97.85,0,0,0,31.12-17.67C610.81,805.45,616.35,797.54,616.35,797.54Z" transform="translate(-58.4 -26.12)"/><path class="cls-7" d="M391.35,786.63s-4.83-18.58-2.23-50.92,10.41-47.57,12.26-58.35,2.61-47.2-17.84-90-47.2-80.65-52-105.18-5.86-36.32-5.66-46A84.27,84.27,0,0,1,329,416.64s-14.64-11.08-22-32.64a161.86,161.86,0,0,1-8.1-40.55s-10.88,25.71-13.85,41.74-4.55,47.47-3.56,57,6.13,41,12.26,55.19,11.28,28.68,14.44,43.52,3.56,42.33,3.56,42.33,9.1,2,14.64,6.13S339.3,605,339.3,605s-21.17-5.15-36.2-4.75-32.05-1-58.55,14.83-36.2,32.44-40.35,39.17-5.34,23.73-5.34,23.73-29.28,20.18-42.13,33-31.85,34.81-41.15,55.78c0,0-4.44,9.92-5.61,18.12s.58,13.75,5,19.89,9.36,18.15,33.95,33.36,36.87,22.24,60.28,30.44,28.38,9.07,41.55,11.7S269.45,882,269.45,882s.88,2.63,7.31,10.53,18.73,10.54,18.73,10.54,2.34,1.46,19.31,1.17A233,233,0,0,1,349,906.6h7.32A40.59,40.59,0,0,1,364,890.8c6.14-7.91,17.55-14,17.55-14a135.11,135.11,0,0,0-14-9.66c-9.07-5.56-20.19-8.19-12.29-13.46s21.94,1.47,32.48,6.73,15.8,15.8,15.8,15.8l13.46-23.41s-9.95-8.48-20.48-13.16-24.29-8.2-12.59-15.81,40.68,11.71,40.68,11.71l5.27-14.34s-17.56-21.65-55.6-14-59.35,19.38-66.38,24.07-16.58,13.07-13.57,3.35,4.52-10.38,4.52-10.38-8.54-7.21-28.13-23.28-33-25.8-42.55-31c0,0-16-9.59-33-12.34S175.8,755,179.73,752s6.67-5.89,16.89-7.07,22.79-2,36.54,3.14,29.66,15.13,29.66,15.13S275,753,302.11,735.92s43.8-25.34,43.8-25.34,9.43-5.69,9.82-2.94-1,9.62-4.52,14.93-9.62,15.71-11.78,18.46a57.17,57.17,0,0,1-4.13,4.71A256.5,256.5,0,0,0,344,772.26c5.5,14.15,10.6,21.61,10.6,21.61A102.8,102.8,0,0,1,373.8,789C385,787.19,391.35,786.63,391.35,786.63Z" transform="translate(-58.4 -26.12)"/><path class="cls-8" d="M298.27,340.88" transform="translate(-58.4 -26.12)"/></g><g id="Layer_13" data-name="Layer 13"><path class="cls-1" d="M358.32,183.86c-20.19-8.6-36.27-13-56.44-21.65-62.64-26.9-102.43-45-192.23-91.85,36.86,47.92,88.47,102,166.6,149.2,11.42,6.9,37.1,20.75,48.28,26.55,18.5,9.6,34.8,5.19,45.7-13C388,203.44,373.46,190.3,358.32,183.86Z" transform="translate(-58.4 -26.12)"/></g><g id="Layer_4" data-name="Layer 4"><path class="cls-9" d="M713.15,677.75s-4,14.39-18.79,40.37-34.78,61.16-26.78,85.15,15.59,34.77,25.18,40.37,26.78,13.59,42.37,4,33.18-43.18,38.38-62,12-49.17,13.41-61.16,1.43-14,1.43-14l-6.85-6.8s-6-3.2,9.2-10.39,32.77-23.59,32.77-23.59l10-10.39s-16.33-2.4-33.16-4-25.62,3.2-25.62,3.2l-7.63,8s-6.24,12.8-8.9-4.79-5.06-14.39-5.06-14.39-19.59,3.59-32-10S708,609.81,708,609.81H696l-1.49-7.16a23.19,23.19,0,0,1-6.16-1.83,31.51,31.51,0,0,1-7.08-5.4s1.94,28.36,17.53,50.35,25.18,26.78,25.18,26.78,8.66,4.8,6.33,4.8S713.15,677.75,713.15,677.75Z" transform="translate(-58.4 -26.12)"/></g><g id="Layer_5" data-name="Layer 5"><path class="cls-9" d="M338.41,268.34s21.8,4.92,42.9-21.81,15.47-45.22,15.47-45.22a260.15,260.15,0,0,1,42.55,0c22.15,2,67.16,28,67.16,28s16.33,11.25,11-1.41-18.65-26.36-18.65-26.36S519.3,211.9,532,220.34s48.66,25.49,45.84,39.56-12,16.87-12,16.87-9.5,4.58-7,10.55c0,0,2.75,12.32,24.84,18.39a239.51,239.51,0,0,1,38.34,14.07l10.83,5.56s2.41,3.31,5.72-3.91,9.93,2.71,9.93,2.71,12.63,18.05,8.72,46.93-15.34,47.84-15.34,47.84-5.42,7.82-8.42,10.83-3.91,5.11-10.53-2.11-21.36-10.83-30.39-14.44-40-17.45-49.64-20.76-11.73-8.51-39.71-10.57-31.29-2-49-7.91-34.3-21.83-34.3-21.83l16.85-2.41s-10.53-13.54-35.2-17.15-31.89,15.65-31.89,15.65l-.6,10.23s23.16-8.73,30.68-3.31,14.14,18.65,38.21,28.58,19.86,8,34.3,10.93,24.37,3.4,42.42,6.76,36.4,10.89,57.46,20.52,26.18,12.33,26.18,12.33a77.45,77.45,0,0,1-15,18.05c-9.62,8.43-13.84,11.43-21.06,13.84s-10.53-.21-22.56-8.08-35.5-19-52.05-22.3-36-5.42-53-6.62-36.31-4.22-52.26-9.93-42.12-16.85-52-35.2-14.75-44.23-13.84-56.86,5.71-33.7,12-44.83S338.41,268.34,338.41,268.34Z" transform="translate(-58.4 -26.12)"/></g><g id="Layer_7" data-name="Layer 7"><path class="cls-10" d="M422.46,265l-17.1,8.46a28.39,28.39,0,0,1,8.55-21.51c9.84-9.94,21.8-13.25,35.77-11.41S478,249.91,485.18,258s14,15.63,17.47,25,5.7,13.61,5.15,23.72-3.3,15.94-6.89,11.19a47.8,47.8,0,0,1-4.88-7.51s-3.31,7.91-13.24,14-30.9,8.09-44.69-2S423.21,303,421.54,293C420.07,284.06,422.46,265,422.46,265Z" transform="translate(-58.4 -26.12)"/></g><g id="Layer_6" data-name="Layer 6"><path class="cls-11" d="M456.46,316.73c2.19-3.37,8.54-16.47,7.15-29s-8.93-19.25-17.27-14.89-11.79,7.35-11.79,7.35l5.44-18s15.28-3.43,32.35,8.48S495,308,495,308a53.82,53.82,0,0,1-18.3,8.73A50,50,0,0,1,456.46,316.73Z" transform="translate(-58.4 -26.12)"/></g><g id="Layer_11" data-name="Layer 11"><path class="cls-1" d="M366.7,517.74s12.11,16.47,18.32,29.75a232.11,232.11,0,0,1,9.92,24.87s46.05,16.47,57.82,19.5,61.34,16.13,67.39-1,2.69-18.66,2.69-18.66l-49.92-43.36s-10.25,7.4-33.61,6S380.49,525.81,366.7,517.74Z" transform="translate(-58.4 -26.12)"/><path class="cls-1" d="M344.69,441.77s-1.35,13.28,1.85,24.71,11.09,31.09,11.09,31.09,26.05,16.81,51.09,19.83,52.44,1.19,52.44,1.19-8.91-9.42-12.94-19a134.55,134.55,0,0,1-5.55-15.13S390.4,495.72,344.69,441.77Z" transform="translate(-58.4 -26.12)"/><path class="cls-1" d="M401.83,590.51s10.57,23.1,13.62,40.1c3,16.47.2,38.36.2,38.36S467,697.41,489.23,704.3s61,14.45,61,14.45,21.51-20,29.07-38.82a80.93,80.93,0,0,0,5-37.15s-1.84-10.08-21.68-29.91-25.37-23.36-25.37-23.36-5.89,24.53-21,27.22-64-6.55-76.64-11.26S401.83,590.51,401.83,590.51Z" transform="translate(-58.4 -26.12)"/></g><g id="Layer_15" data-name="Layer 15"><path class="cls-12" d="M801.75,603.6a7.63,7.63,0,0,1-6.45-6.48l-11.07-1.61-1.32,9.08,36.62,5.31,1.32-9.07-11.06-1.61A7.63,7.63,0,0,1,801.75,603.6Z" transform="translate(-58.4 -26.12)"/><path class="cls-12" d="M786.16,582.19l-1.31,9.07,11.06,1.61A7.63,7.63,0,0,1,810.4,595l11.07,1.61,1.32-9.08Z" transform="translate(-58.4 -26.12)"/><circle class="cls-12" cx="802.85" cy="596.05" r="6.35" transform="translate(-107.51 46.48) rotate(-5.02)"/><path class="cls-13" d="M568.07,341.61c-1.69-11,5.48-14.47,13.63-14s21.63,8,27.12,17,11,36.76-3.66,14.47-26.62-18.3-25.95-11.51C580.69,362.68,571.17,362,568.07,341.61Z" transform="translate(-58.4 -26.12)"/></g><g id="Layer_23" data-name="Layer 23"><path class="cls-14" d="M387.83,180.84S296.19,147.29,242,121.32,69.26,36,69.26,36s46.1,74.27,90.38,117.24,130.62,93.31,130.62,93.31" transform="translate(-58.4 -26.12)"/></g></svg>